<!DOCTYPE svg PUBLIC "-//W3C//DTD SVG 1.1//EN" "http://www.w3.org/Graphics/SVG/1.1/DTD/svg11.dtd">
<!-- Uploaded to: SVG Repo, www.svgrepo.com, Transformed by: SVG Repo Mixer Tools -->
<svg height="101px" width="101px" version="1.1" id="Layer_1" xmlns="http://www.w3.org/2000/svg" xmlns:xlink="http://www.w3.org/1999/xlink" viewBox="-51.2 -51.2 614.40 614.40" xml:space="preserve" fill="#000000">
<g id="SVGRepo_bgCarrier" stroke-width="0">
<rect x="-51.2" y="-51.2" width="614.40" height="614.40" rx="307.2" fill="#7ed0ec" strokewidth="0"/>
</g>
<g id="SVGRepo_tracerCarrier" stroke-linecap="round" stroke-linejoin="round"/>
<g id="SVGRepo_iconCarrier"> <ellipse transform="matrix(-0.2095 -0.9778 0.9778 -0.2095 -102.1455 456.8326)" style="fill:#F9B856;" cx="133.588" cy="269.706" rx="44.849" ry="24.594"/> <ellipse transform="matrix(0.2406 -0.9706 0.9706 0.2406 26.993 573.9126)" style="fill:#F8A734;" cx="380.271" cy="269.706" rx="44.848" ry="24.594"/> <path style="fill:#F9B856;" d="M426.342,512c2.088,0,3.883-1.481,4.28-3.531c0.396-2.05-0.715-4.095-2.653-4.873l0,0l-83.89-33.657 c-19.844-7.961-32.851-27.194-32.851-48.575v-69.266H200.776v69.266c0,21.382-13.006,40.614-32.851,48.575l-83.89,33.657 c-1.939,0.778-3.053,2.822-2.657,4.873S83.571,512,85.66,512H426.342z"/> <g> <path style="fill:#F8A734;" d="M427.967,503.596l-83.89-33.657c-19.844-7.961-32.851-27.194-32.851-48.575v-69.266h-55.226v159.901 h170.341c2.088,0,3.883-1.481,4.28-3.531C431.018,506.419,429.905,504.373,427.967,503.596z"/> <path style="fill:#F8A734;" d="M200.776,352.099v69.266c0,0.826-0.026,1.648-0.065,2.467c16.815,12.101,35.542,19.178,55.29,19.178 c19.748,0,38.476-7.077,55.29-19.178c-0.038-0.82-0.065-1.641-0.065-2.467v-69.266H200.776z"/> </g> <path style="fill:#834E00;" d="M416.51,10.671c-0.311-3.917-2.585-7.41-6.042-9.279c-3.457-1.869-7.622-1.853-11.07,0.031 c-49.079,26.81-116.251,17.293-177.832,22.341c-36.622,3.002-49.688,24.03-53.937,42.89c-0.252-0.004-0.5-0.019-0.753-0.019 c-30.06-0.792-68.461,4.15-68.461,51.171c0,23.511,25.79,108.044,25.79,108.044l87.732-68.859h133.709 c40.85,0,73.944-33.116,73.967-73.967C419.627,55.551,417.905,28.25,416.51,10.671z"/> <path style="fill:#693E00;" d="M416.51,10.671c-0.311-3.917-2.585-7.41-6.042-9.279c-3.457-1.869-7.622-1.853-11.07,0.031 c-39.973,21.836-91.946,19.575-143.126,20.711v134.857h89.374c40.85,0,73.944-33.116,73.967-73.967 C419.627,55.551,417.904,28.25,416.51,10.671z"/> <path style="fill:#F8C478;" d="M177.454,151.303c-26.724,0-49.195,20.133-52.039,46.704c-0.761,7.117-1.155,14.378-1.155,21.754 c0,90.398,58.983,186.302,131.742,186.302s131.742-95.904,131.742-186.302c0-24.442-4.319-47.629-12.051-68.458H177.454z"/> <path style="fill:#F9B856;" d="M375.693,151.303H255.999v254.76h0.001c72.76,0,131.742-95.904,131.742-186.302 C387.743,195.32,383.424,172.133,375.693,151.303z"/> <path style="fill:#F8A734;" d="M341.888,230.78h-61.422c-6.324,0-11.63,4.305-13.184,10.139h-22.563 c-1.555-5.835-6.86-10.139-13.184-10.139h-61.422c-7.544,0-13.66,6.115-13.66,13.66v23.09c0,14.653,11.878,26.53,26.53,26.53h35.68 c14.653,0,26.53-11.878,26.53-26.53v-4.218h21.614v4.218c0,14.653,11.878,26.53,26.53,26.53h35.68 c14.653,0,26.53-11.878,26.53-26.53v-23.09C355.548,236.897,349.432,230.78,341.888,230.78z"/> <path style="fill:#1D1D1F;" d="M295.614,247.934h-69.412c-6.183,0-11.196-5.012-11.196-11.196s5.012-11.196,11.196-11.196h69.412 c6.183,0,11.196,5.012,11.196,11.196S301.797,247.934,295.614,247.934z"/> <g> <path style="fill:#3E3E42;" d="M357.442,252.153c0,14.653-11.878,26.53-26.53,26.53h-35.68c-14.653,0-26.53-11.878-26.53-26.53 v-23.09c0-7.544,6.115-13.66,13.66-13.66h61.422c7.544,0,13.66,6.115,13.66,13.66v23.09H357.442z"/> <path style="fill:#3E3E42;" d="M247.087,252.153c0,14.653-11.878,26.53-26.53,26.53h-35.68c-14.653,0-26.53-11.878-26.53-26.53 v-23.09c0-7.544,6.115-13.66,13.66-13.66h61.422c7.544,0,13.66,6.115,13.66,13.66v23.09H247.087z"/> </g> </g>
</svg>