<!DOCTYPE svg PUBLIC "-//W3C//DTD SVG 1.1//EN" "http://www.w3.org/Graphics/SVG/1.1/DTD/svg11.dtd">
<!-- Uploaded to: SVG Repo, www.svgrepo.com, Transformed by: SVG Repo Mixer Tools -->
<svg width="100px" height="100px" viewBox="-3.6 -3.6 43.20 43.20" xmlns="http://www.w3.org/2000/svg" xmlns:xlink="http://www.w3.org/1999/xlink" aria-hidden="true" role="img" class="iconify iconify--twemoji" preserveAspectRatio="xMidYMid meet" fill="#000000" transform="rotate(0)">
<g id="SVGRepo_bgCarrier" stroke-width="0">
<path transform="translate(-3.6, -3.6), scale(1.35)" d="M16,27.820245130608477C17.712580962010854,27.425782750306468,19.624828935912635,28.46114891469615,21.213489822355246,27.709689861385243C22.80227660366909,26.95817125802085,23.33361881076639,24.961275369201203,24.606442901353446,23.749275995397078C25.98919088409009,22.432605685965104,27.917581407849287,21.77506266945293,29.055843273348547,20.242100630440845C30.341002507839516,18.51130354387029,32.01663152557243,16.473148783124874,31.576064706754067,14.362889630547922C31.120755260409467,12.182015163014395,28.48957234859274,11.249714956862471,26.861059405293616,9.729364428669218C25.59937817983878,8.551481424776236,24.260051975176264,7.543751769926521,23.003851746997498,6.360025081772205C21.583064759966977,5.021207083650449,20.69413697698141,3.069837294439375,18.922839445313492,2.249121540406863C17.092570487868045,1.4010818742093498,14.763525970364856,0.7997574263546817,12.961972683591036,1.7072052138043396C11.050508714638214,2.6700153411262875,11.311736660782241,5.922230204676865,9.469105906075455,7.010995444610286C7.346839379359475,8.264990591635975,4.095430009693559,6.439169691866133,2.22878225340013,8.049183726931604C0.5694176222674074,9.480412696836387,0.9423289401053446,12.22106895125938,0.8886965449401529,14.41173800648835C0.8371564311017764,16.516945729189292,0.7903551965503854,18.798331717063068,1.9221429762262403,20.574173027774854C3.0446107006080156,22.335390625890906,5.755113136086768,22.420943894772595,7.041671153690894,24.06611552336671C8.456733819542691,25.875611028961913,7.476439370943931,29.49796394314877,9.595031969910586,30.385793731261636C11.739633162310291,31.28452283244113,13.734029611521628,28.342170863149338,16,27.820245130608477" fill="#7ed0ec" strokewidth="0"/>
</g>
<g id="SVGRepo_tracerCarrier" stroke-linecap="round" stroke-linejoin="round"/>
<g id="SVGRepo_iconCarrier"> <path fill="#FFCC4D" d="M35.734 19.929C35.375 16.66 35 15 34 13c0 0 3-9 1-12.7c-.674-1.246-7.404 1.688-10 3.7c0 0-4-.998-7-.998S11 4 11 4C8.404 1.988 1.674-.946 1 .3C-1 4 2 13 2 13C1 15 .625 16.66.266 19.929C-.129 23.513.657 26.37 1 27c.39.716 2.367 3.025 5 5c4 3 10 4 12 4s8-1 12-4c2.633-1.975 4.61-4.284 5-5c.343-.63 1.129-3.487.734-7.071z"> </path> <path fill="#E75A70" d="M18 19.5c3 0 3 .5 3 1.5s-1.5 3-3 3s-3-2-3-3s-.001-1.5 3-1.5z"> </path> <path fill="#F18F26" d="M2 3c.447-1.342 5.64 1 6.64 2C8.64 5 4 8 3 11c0 0-2-5-1-8zm32 0c-.447-1.342-5.64 1-6.64 2c0 0 4.64 3 5.64 6c0 0 2-5 1-8z"> </path> <path fill="#FFCC4D" d="M4.934 5.603C4.934 4.189 11 7 10 8s-2 1.603-3 2.603s-2.066-4-2.066-5zm26.132 0C31.066 4.189 25 7 26 8s2 1.603 3 2.603s2.066-4 2.066-5z"> </path> <path fill="#FEE7B8" d="M.701 25a.5.5 0 0 1-.31-.892c.162-.127 4.02-3.12 10.648-2.605c.275.02.481.261.46.536c-.021.275-.257.501-.537.46c-6.233-.474-9.915 2.366-9.951 2.395a.51.51 0 0 1-.31.106zm8.868-4.663a.512.512 0 0 1-.149-.022c-4.79-1.497-8.737-.347-8.777-.336a.499.499 0 1 1-.288-.957c.173-.052 4.286-1.247 9.362.338a.5.5 0 0 1-.148.977zM35.299 25a.5.5 0 0 0 .31-.892c-.162-.127-4.02-3.12-10.648-2.605a.499.499 0 0 0-.46.536c.021.275.257.501.537.46c6.233-.474 9.915 2.366 9.951 2.395a.51.51 0 0 0 .31.106zm-8.868-4.663c.049 0 .1-.007.149-.022c4.79-1.497 8.737-.347 8.777-.336a.499.499 0 1 0 .288-.957c-.173-.052-4.286-1.247-9.362.338a.5.5 0 0 0 .148.977z"> </path> <path fill="#292F33" d="M25.327 25.622a.5.5 0 0 0-.551-.069l-4 2c-1.871.935-6.727.947-6.776.947a.5.5 0 0 0-.25.933v.001h.001v.001c.071.04.153.063.24.065h7.008c2.658 0 4.089-2.186 4.475-3.342a.5.5 0 0 0-.147-.536z"> </path> <g fill="#292F33"> <ellipse cx="12" cy="14.5" rx="2" ry="3.5"> </ellipse> <ellipse cx="24" cy="14.5" rx="2" ry="3.5"> </ellipse> <path d="M21 12a.999.999 0 0 1-.707-1.707C24.537 6.049 28.819 6 29 6a1 1 0 0 1 .005 2c-.065.001-3.687.096-7.298 3.707A.997.997 0 0 1 21 12zm-6 0a.997.997 0 0 1-.707-.293C10.667 8.082 7.031 8 6.995 8a1.002 1.002 0 0 1-.992-1.005A.997.997 0 0 1 7 6c.18 0 4.463.049 8.707 4.293A.999.999 0 0 1 15 12z"> </path> </g> </g>
</svg>