<!DOCTYPE svg PUBLIC "-//W3C//DTD SVG 1.1//EN" "http://www.w3.org/Graphics/SVG/1.1/DTD/svg11.dtd">
<!-- Uploaded to: SVG Repo, www.svgrepo.com, Transformed by: SVG Repo Mixer Tools -->
<svg fill="#ffffff" width="100px" height="100px" viewBox="0 0 512 512" id="Laptop_protection" xmlns="http://www.w3.org/2000/svg" stroke="#ffffff">
<g id="SVGRepo_bgCarrier" stroke-width="0"/>
<g id="SVGRepo_tracerCarrier" stroke-linecap="round" stroke-linejoin="round"/>
<g id="SVGRepo_iconCarrier">
<path d="M31,364.9v8.1233A35.9749,35.9749,0,0,0,66.9736,409H445.022A35.9787,35.9787,0,0,0,481,373.0232V364.9Z"/>
<path d="M445,129.999A27.0005,27.0005,0,0,0,418,103H93.9956A26.9968,26.9968,0,0,0,67,129.999V345.1H445ZM337,225.04a83.0078,83.0078,0,0,1-43.1851,72.8315L256,318.5508l-37.8193-20.68A83.0124,83.0124,0,0,1,175,225.04V164.3884l81-25.8376,81,25.8376Z"/>
<path d="M221.1162,225.27a9.894,9.894,0,1,0-13.9922,13.9922l25.4444,25.4443a9.8984,9.8984,0,0,0,14.0009,0l58.3155-58.3242a9.9,9.9,0,1,0-14.01-13.9922l-51.31,51.3193Z"/>
</g>
</svg>